<svg width="40" height="40" viewBox="0 0 40 40" fill="none" xmlns="http://www.w3.org/2000/svg">
  <!-- 3V Logo for mobile and points -->
  <defs>
    <linearGradient id="threeVGradient" x1="0%" y1="0%" x2="100%" y2="100%">
      <stop offset="0%" style="stop-color:#00ff88;stop-opacity:1" />
      <stop offset="100%" style="stop-color:#0066ff;stop-opacity:1" />
    </linearGradient>
  </defs>
  
  <!-- The "3" with dollar sign integration -->
  <path d="M8 5 L8 2 L12 2 L12 5 L10 5 L10 8 L12 8 L12 11 L10 11 L10 14 L12 14 L12 17 L10 17 L10 20 L12 20 L12 23 L8 23 L8 20 L10 20 L10 17 L8 17 L8 14 L10 14 L10 11 L8 11 L8 8 L10 8 L10 5 L8 5 Z" 
        fill="url(#threeVGradient)" 
        stroke="#ff0000" 
        stroke-width="0.3"/>
  
  <!-- V -->
  <path d="M15 5 L18 20 L21 5 L24 5 L20 25 L16 25 L12 5 L15 5 Z" 
        fill="url(#threeVGradient)" 
        stroke="#ff0000" 
        stroke-width="0.3"/>
</svg>



